HIERARCHY
ROOT SpineBase
{
  OFFSET 0.000000 0.000000 0.000000
  CHANNELS 6 Xposition Yposition Zposition Zrotation Xrotation Yrotation
  JOINT SpineMid
  {
    OFFSET 0.000000 26.407954 0.000000
    CHANNELS 3 Zrotation Xrotation Yrotation
    JOINT SpineShoulder
    {
      OFFSET -0.021672 19.482243 -0.624076
      CHANNELS 3 Zrotation Xrotation Yrotation
      JOINT Neck
      {
        OFFSET -0.021153 6.400059 -0.504299
        CHANNELS 3 Zrotation Xrotation Yrotation
        JOINT Head
        {
          OFFSET 3.423821 12.346669 -1.430538
          CHANNELS 3 Zrotation Xrotation Yrotation
          End Site
          {
            OFFSET 0 0 0
          }
        }
      }
      JOINT ShoulderLeft
      {
        OFFSET -11.899877 -3.339654 -8.391858
        CHANNELS 3 Zrotation Xrotation Yrotation
        JOINT ElbowLeft
        {
          OFFSET -7.813371 -20.557613 -6.160594
          CHANNELS 3 Zrotation Xrotation Yrotation
          JOINT WristLeft
          {
            OFFSET 6.701227 -13.139444 -16.832337
            CHANNELS 3 Zrotation Xrotation Yrotation
            JOINT HandLeft
            {
              OFFSET 3.980585 -4.168964 -4.199297
              CHANNELS 3 Zrotation Xrotation Yrotation
              JOINT HandTipLeft
              {
                OFFSET 3.255713 -2.620143 -2.490598
                CHANNELS 3 Zrotation Xrotation Yrotation
                End Site
                {
                  OFFSET 0 0 0
                }
              }
              JOINT ThumbLeft
              {
                OFFSET -1.616105 -5.585116 3.783822
                CHANNELS 3 Zrotation Xrotation Yrotation
                End Site
                {
                  OFFSET 0 0 0
                }
              }
            }
          }
        }
      }
      JOINT ShoulderRight
      {
        OFFSET 14.941777 -4.764559 6.356889
        CHANNELS 3 Zrotation Xrotation Yrotation
        JOINT ElbowRight
        {
          OFFSET 8.544371 -20.587530 10.339661
          CHANNELS 3 Zrotation Xrotation Yrotation
          JOINT WristRight
          {
            OFFSET 17.264605 -15.815512 -15.661318
            CHANNELS 3 Zrotation Xrotation Yrotation
            JOINT HandRight
            {
              OFFSET 1.460632 -3.180701 -2.308176
              CHANNELS 3 Zrotation Xrotation Yrotation
              JOINT HandTipRight
              {
                OFFSET 1.075435 -5.263643 -3.576595
                CHANNELS 3 Zrotation Xrotation Yrotation
                End Site
                {
                  OFFSET 0 0 0
                }
              }
              JOINT ThumbRight
              {
                OFFSET 2.532468 4.186691 -2.838848
                CHANNELS 3 Zrotation Xrotation Yrotation
                End Site
                {
                  OFFSET 0 0 0
                }
              }
            }
          }
        }
      }
    }
  }
  JOINT HipLeft
  {
    OFFSET -6.258438 0.888907 -6.655095
    CHANNELS 3 Zrotation Xrotation Yrotation
    JOINT KneeLeft
    {
      OFFSET 18.428967 -6.908710 -27.933313
      CHANNELS 3 Zrotation Xrotation Yrotation
      JOINT AnkleLeft
      {
        OFFSET -0.893523 -35.380828 3.860391
        CHANNELS 3 Zrotation Xrotation Yrotation
        JOINT FootLeft
        {
          OFFSET 3.267698 -4.856794 -9.493452
          CHANNELS 3 Zrotation Xrotation Yrotation
          End Site
          {
            OFFSET 0 0 0
          }
        }
      }
    }
  }
  JOINT HipRight
  {
    OFFSET 5.549635 -0.275593 -0.321130
    CHANNELS 3 Zrotation Xrotation Yrotation
    JOINT KneeRight
    {
      OFFSET 28.891703 -6.006940 -21.524733
      CHANNELS 3 Zrotation Xrotation Yrotation
      JOINT AnkleRight
      {
        OFFSET -1.523864 -34.762500 3.678869
        CHANNELS 3 Zrotation Xrotation Yrotation
        JOINT FootRight
        {
          OFFSET 3.092229 -4.888094 -9.470811
          CHANNELS 3 Zrotation Xrotation Yrotation
          End Site
          {
            OFFSET 0 0 0
          }
        }
      }
    }
  }
}
MOTION
Frames: 9
Frame Time: 0.033333
38.866767 48.865604 386.276927 0.159048 0.368318 -24.372810 0.007120 -0.401127 24.372324 -0.000000 0.000000 0.000000 -2.233573 8.143456 -2.368250 0.000000 0.000000 0.000000 -0.000000 0.000000 0.000000 1.241296 1.839687 -0.654733 -7.952971 -5.788328 3.561941 -3.224695 -5.156045 -6.615318 0.000000 0.000000 0.000000 0.000000 0.000000 0.000000 43.793557 15.039371 20.961922 108.544580 37.102640 -71.120335 134.937645 39.100856 100.523170 60.138672 1.201829 19.537414 0.000000 0.000000 0.000000 0.000000 0.000000 0.000000 -0.973439 -4.156908 26.511939 2.556600 2.921469 -2.243834 -0.000000 0.000000 0.000000 0.000000 0.000000 0.000000 -2.033205 -4.038759 24.458368 3.365861 2.462844 -0.237498 -0.000000 0.000000 0.000000 0.000000 0.000000 0.000000
38.937028 48.595139 386.198628 0.134603 0.548752 -25.093733 0.110828 -0.554043 25.093625 -0.000000 0.000000 0.000000 -0.816527 6.805900 -1.944973 0.000000 0.000000 0.000000 -0.000000 0.000000 0.000000 1.034182 1.948469 -0.339671 -5.598577 -4.277506 2.612534 -5.995065 -7.935063 -7.506998 0.000000 0.000000 0.000000 0.000000 0.000000 0.000000 33.945915 10.185071 17.142989 106.430204 31.548888 -64.678834 25.897006 33.883635 -40.692828 -40.493660 33.071698 -78.307019 0.000000 0.000000 0.000000 0.000000 0.000000 0.000000 -0.760294 -4.043811 27.086843 2.366664 2.709051 -2.084148 -0.000000 0.000000 0.000000 0.000000 0.000000 0.000000 -1.690931 -3.842495 25.245153 3.033911 2.203296 -0.279029 -0.000000 0.000000 0.000000 0.000000 0.000000 0.000000
38.991727 48.298963 386.079224 0.104134 0.720530 -25.892290 0.220969 -0.693673 25.892973 -0.000000 0.000000 0.000000 0.216712 5.873390 -1.626582 0.000000 0.000000 0.000000 -0.000000 0.000000 0.000000 0.382769 1.256250 0.143912 0.545700 3.876702 3.606609 -6.630215 -9.449291 -5.801305 0.000000 0.000000 0.000000 0.000000 0.000000 0.000000 20.270995 6.229916 11.199274 106.861308 31.088043 -59.195572 26.416927 10.871309 -22.459007 -46.937900 69.803438 -70.570499 0.000000 0.000000 0.000000 0.000000 0.000000 0.000000 -0.528143 -3.901587 27.670542 2.154696 2.492197 -1.854487 -0.000000 0.000000 0.000000 0.000000 0.000000 0.000000 -1.251191 -3.464449 26.045234 2.540178 1.841439 -0.246517 -0.000000 0.000000 0.000000 0.000000 0.000000 0.000000
39.003560 48.016051 386.002009 0.028771 0.795425 -26.522529 0.329471 -0.724557 26.524412 -0.000000 0.000000 0.000000 0.730414 5.449976 -1.473241 0.000000 0.000000 0.000000 -0.000000 0.000000 0.000000 -0.348054 -1.110612 -0.125691 3.731623 7.847872 2.644208 -8.665936 -11.010567 -5.391813 0.000000 0.000000 0.000000 0.000000 0.000000 0.000000 12.144906 2.342155 6.613750 102.449294 29.457359 -55.555762 28.396337 7.125708 -19.071530 -15.382305 49.552683 -57.542427 0.000000 0.000000 0.000000 0.000000 0.000000 0.000000 -0.297561 -3.610892 28.023484 1.910712 2.252668 -1.560366 -0.000000 0.000000 0.000000 0.000000 0.000000 0.000000 -0.742540 -2.781530 26.688464 1.881983 1.355708 -0.219121 -0.000000 0.000000 0.000000 0.000000 0.000000 0.000000
38.997908 47.746677 385.927789 -0.062579 0.866825 -26.839885 0.447235 -0.745180 26.843267 -0.000000 0.000000 0.000000 0.820263 5.592175 -1.508448 0.000000 0.000000 0.000000 -0.000000 0.000000 0.000000 -0.099356 -2.082633 -0.959548 2.050415 6.889745 3.153142 -9.214886 -10.782800 -5.372068 0.000000 0.000000 0.000000 0.000000 0.000000 0.000000 9.360329 -1.127714 4.171525 93.520689 25.638522 -52.755738 31.372445 8.265486 -19.614424 -6.079183 31.028781 -40.917421 0.000000 0.000000 0.000000 0.000000 0.000000 0.000000 -0.077879 -3.308950 28.063633 1.670260 2.014857 -1.268318 -0.000000 0.000000 0.000000 0.000000 0.000000 0.000000 -0.312569 -2.226930 26.949746 1.348914 0.976253 -0.137678 -0.000000 0.000000 0.000000 0.000000 0.000000 0.000000
38.960114 47.533070 385.869471 -0.176454 0.914251 -26.999462 0.572312 -0.734482 27.004538 -0.000000 0.000000 0.000000 0.956322 5.635019 -1.512188 0.000000 0.000000 0.000000 -0.000000 0.000000 0.000000 0.211720 -2.740211 -1.714758 -0.437291 5.046771 3.978546 -9.849069 -11.208162 -6.760329 0.000000 0.000000 0.000000 0.000000 0.000000 0.000000 9.782708 -3.486739 3.592338 81.656980 21.977288 -49.690901 40.897656 5.099653 -20.017978 -18.199085 27.139905 -32.954563 0.000000 0.000000 0.000000 0.000000 0.000000 0.000000 0.117970 -2.950477 28.080075 1.444421 1.741008 -1.112096 -0.000000 0.000000 0.000000 0.000000 0.000000 0.000000 0.084410 -1.715345 27.009664 0.880137 0.652241 -0.020566 -0.000000 0.000000 0.000000 0.000000 0.000000 0.000000
38.925809 47.386126 385.867218 -0.243051 0.873107 -26.960445 0.612515 -0.668003 26.965868 -0.000000 0.000000 0.000000 0.984595 5.615562 -1.504742 0.000000 0.000000 0.000000 0.666888 -0.467603 -0.019473 -0.434999 -2.841518 -2.027478 -1.753854 4.220859 4.471425 -10.765635 -10.954878 -6.245255 0.000000 0.000000 0.000000 0.000000 0.000000 0.000000 11.870964 -4.569218 4.288226 68.661885 17.675807 -46.558560 46.315498 2.859660 -21.598201 -27.565483 23.684934 -24.039817 0.000000 0.000000 0.000000 0.000000 0.000000 0.000000 0.202865 -2.513752 28.003945 1.228598 1.437123 -1.064861 -0.000000 0.000000 0.000000 0.000000 0.000000 0.000000 0.612515 -0.668003 26.965868 -0.000000 0.000000 0.000000 -0.000000 0.000000 0.000000 0.000000 0.000000 0.000000
38.894165 47.293617 385.918674 -0.288538 0.752248 -26.650448 0.595324 -0.542887 26.655163 -0.000000 0.000000 0.000000 0.999289 5.551449 -1.485180 0.000000 0.000000 0.000000 0.911261 -0.342263 -0.140832 -0.882023 -3.402020 -1.872510 -1.005248 5.204981 4.307158 -10.916324 -11.162975 -6.139433 0.000000 0.000000 0.000000 0.000000 0.000000 0.000000 16.945279 -3.697828 7.030630 53.291392 11.512819 -44.007213 47.814584 -0.402499 -21.876447 -48.551717 30.362612 -13.755629 0.000000 0.000000 0.000000 0.000000 0.000000 0.000000 0.199121 -2.045175 27.767455 1.050618 1.144598 -1.131735 -0.000000 0.000000 0.000000 0.000000 0.000000 0.000000 0.595324 -0.542887 26.655163 -0.000000 0.000000 0.000000 -0.000000 0.000000 0.000000 0.000000 0.000000 0.000000
38.850833 47.272059 385.980562 -0.340729 0.626353 -26.385601 0.583604 -0.409662 26.389550 -0.000000 0.000000 0.000000 1.073542 5.241777 -1.390269 0.000000 0.000000 0.000000 1.232804 0.038103 -0.385884 -1.267522 -3.655021 -1.455732 -1.694044 3.957441 3.987446 -8.954624 -8.506654 -3.890383 0.000000 0.000000 0.000000 0.000000 0.000000 0.000000 24.926644 -1.129107 11.361669 36.232373 5.694926 -43.285487 51.045639 -10.750777 -18.889309 -74.994439 33.047310 6.471800 0.000000 0.000000 0.000000 0.000000 0.000000 0.000000 0.194327 -1.663255 27.575803 0.925457 0.930904 -1.200813 -0.000000 0.000000 0.000000 0.000000 0.000000 0.000000 0.583604 -0.409662 26.389550 -0.000000 0.000000 0.000000 -0.000000 0.000000 0.000000 0.000000 0.000000 0.000000
